<svg width="34" height="34" viewBox="0 0 34 34" fill="none" xmlns="http://www.w3.org/2000/svg">
<path d="M23.9833 0.333336H10.0167C3.95001 0.333336 0.333344 3.95 0.333344 10.0167V23.9667C0.333344 30.05 3.95001 33.6667 10.0167 33.6667H23.9667C30.0333 33.6667 33.65 30.05 33.65 23.9833V10.0167C33.6667 3.95 30.05 0.333336 23.9833 0.333336ZM16.1667 25.75C16.1667 26.35 15.5667 26.75 15.0167 26.5167C13 25.65 10.3667 24.85 8.53334 24.6167L8.21668 24.5833C7.20001 24.45 6.36668 23.5 6.36668 22.4667V9.63334C6.36668 8.35 7.40001 7.4 8.66668 7.5C10.75 7.66667 13.8333 8.66667 15.7667 9.76667C16.0333 9.91667 16.1667 10.2 16.1667 10.4833V25.75ZM27.6333 22.45C27.6333 23.4833 26.8 24.4333 25.7833 24.5667L25.4333 24.6C23.6167 24.85 21 25.6333 18.9833 26.4833C18.4333 26.7167 17.8333 26.3167 17.8333 25.7167V10.4667C17.8333 10.1667 17.9833 9.88334 18.25 9.73334C20.1833 8.65 23.2 7.68334 25.25 7.5H25.3167C26.6 7.5 27.6333 8.53334 27.6333 9.81667V22.45Z" fill="#546FFF"/>
</svg>
